#!OML:ASF H:\ManfredObstacles\Project 1\Capture day 2\Session 1\male.ASF
:FULLY-SPECIFIED
:DEGREES
1037
root 3.19298 16.0552 -22.3583 -172.406 -5.31199 177.571
lowerback -6.22452 -2.24061 -4.79481
upperback 1.11359 -2.64035 0.579079
thorax 4.90048 -1.45234 3.01492
lowerneck -35.6459 1.75805 3.6227
upperneck 37.6758 2.54694 -1.03435
head 21.2849 1.83646 -0.255124
rclavicle 2.41648e-014 4.67144e-015
rhumerus -35.5292 -20.1798 -76.6605
rradius 24.5541
rwrist 37.0671
rhand -2.46087 -5.85446
rfingers 7.12502
rthumb 23.2313 -34.4732
lclavicle 2.41648e-014 4.67144e-015
lhumerus -25.6045 17.1508 84.2864
lradius 18.9448
lwrist -57.6488
lhand 1.51636 5.32938
lfingers 7.12502
lthumb 27.042 33.4133
rfemur -12.9923 2.33962 24.9015
rtibia 24.0707
rfoot -10.9336 -9.14439
rtoes -7.34115
lfemur -9.50325 -6.24895 -16.512
ltibia 54.1968
lfoot 32.4246 -3.42434
ltoes 16.8777
1038
root 3.19833 16.0547 -22.3537 -172.416 -5.36432 177.573
lowerback -6.20285 -2.22265 -4.77267
upperback 1.1233 -2.61931 0.587701
thorax 4.89579 -1.44147 3.01441
lowerneck -35.6726 1.79173 3.65568
upperneck 37.7137 2.61409 -1.08936
head 21.322 1.85949 -0.269403
rclavicle -4.14342e-014 -5.06901e-015
rhumerus -35.5251 -20.2911 -76.5639
rradius 24.4858
rwrist 37.1647
rhand -2.45068 -5.87637
rfingers 7.12502
rthumb 23.2411 -34.4939
lclavicle -4.14342e-014 -5.06901e-015
lhumerus -25.5295 17.1725 84.2907
lradius 18.8938
lwrist -57.5648
lhand 1.49422 5.34988
lfingers 7.12502
lthumb 27.0208 33.437
rfemur -12.9994 2.18368 24.9276
rtibia 24.0711
rfoot -10.9292 -9.06753
rtoes -7.37352
lfemur -9.59388 -6.23026 -16.4604
ltibia 54.3059
lfoot 32.437 -3.40338
ltoes 16.9367
1039
root 3.20355 16.0543 -22.3491 -172.423 -5.42825 177.582
lowerback -6.17872 -2.20582 -4.73771
upperback 1.12445 -2.60111 0.59775
thorax 4.88044 -1.43128 3.00814
lowerneck -35.6678 1.82377 3.67984
upperneck 37.7426 2.68665 -1.14289
head 21.345 1.88396 -0.280113
rclavicle -6.83322e-015 1.59028e-015
rhumerus -35.5298 -20.4098 -76.4579
rradius 24.4066
rwrist 37.2725
rhand -2.44213 -5.90488
rfingers 7.12502
rthumb 23.2493 -34.5214
lclavicle -6.83322e-015 1.59028e-015
lhumerus -25.4554 17.186 84.292
lradius 18.8362
lwrist -57.4932
lhand 1.47814 5.36635
lfingers 7.12502
lthumb 27.0054 33.4559
rfemur -13.0061 2.01495 24.9611
rtibia 24.0655
rfoot -10.922 -8.98693
rtoes -7.41206
lfemur -9.69488 -6.21874 -16.4002
ltibia 54.4219
lfoot 32.4516 -3.37882
ltoes 17.0137
1040
root 3.20834 16.054 -22.3442 -172.425 -5.50186 177.594
lowerback -6.16119 -2.19003 -4.69411
upperback 1.11835 -2.58483 0.60942
thorax 4.86107 -1.4216 2.9984
lowerneck -35.6368 1.86161 3.70887
upperneck 37.7613 2.77301 -1.20862
head 21.3551 1.91258 -0.294448
rclavicle 9.7653e-015 1.13307e-014
rhumerus -35.5416 -20.5235 -76.345
rradius 24.3235
rwrist 37.3839
rhand -2.43204 -5.94234
rfingers 7.12502
rthumb 23.259 -34.5576
lclavicle 9.7653e-015 1.13307e-014
lhumerus -25.3881 17.22 84.2844
lradius 18.7842
lwrist -57.499
lhand 1.48235 5.36267
lfingers 7.12502
lthumb 27.0094 33.4516
rfemur -13.0181 1.83186 24.9954
rtibia 24.0571
rfoot -10.9153 -8.89603
rtoes -7.45326
lfemur -9.80699 -6.21432 -16.3392
ltibia 54.5417
lfoot 32.4638 -3.35334
ltoes 17.0731
1041
root 3.21288 16.0538 -22.3391 -172.421 -5.58176 177.603
lowerback -6.14527 -2.17308 -4.652
upperback 1.09722 -2.56716 0.622303
thorax 4.82691 -1.41073 2.99116
lowerneck -35.5705 1.90622 3.7474
upperneck 37.78 2.87756 -1.28972
head 21.3575 1.94838 -0.313258
rclavicle -4.37326e-015 7.95139e-015
rhumerus -35.5804 -20.6265 -76.2142
rradius 24.241
rwrist 37.5085
rhand -2.4217 -5.96908
rfingers 7.12502
rthumb 23.2689 -34.5831
lclavicle -4.37326e-015 7.95139e-015
lhumerus -25.3467 17.2735 84.2669
lradius 18.7411
lwrist -57.5746
lhand 1.50845 5.34482
lfingers 7.12502
lthumb 27.0344 33.4299
rfemur -13.0381 1.65684 25.0234
rtibia 24.0511
rfoot -10.9124 -8.8114
rtoes -7.49606
lfemur -9.92811 -6.21381 -16.2845
ltibia 54.6619
lfoot 32.4733 -3.33294
ltoes 17.0986
1042
root 3.21746 16.0535 -22.3336 -172.418 -5.6633 177.609
lowerback -6.12368 -2.1519 -4.61611
upperback 1.07343 -2.54382 0.638467
thorax 4.78671 -1.39712 2.99167
lowerneck -35.5445 3.3944 2.77084
upperneck 37.8612 2.28209 -0.580227
head 21.3642 0.678498 -0.335897
rclavicle -2.47984e-014 7.15625e-015
rhumerus -35.6208 -20.7336 -76.0658
rradius 24.1541
rwrist 37.6669
rhand -2.39677 -5.98735
rfingers 7.12502
rthumb 23.2928 -34.5983
lclavicle -2.47984e-014 7.15625e-015
lhumerus -25.3094 17.343 84.251
lradius 18.7072
lwrist -57.7124
lhand 1.56094 5.31295
lfingers 7.12502
lthumb 27.0846 33.3902
rfemur -13.0599 1.50851 25.0476
rtibia 24.0519
rfoot -10.9127 -8.74888
rtoes -7.53006
lfemur -10.0484 -6.20861 -16.2346
ltibia 54.7814
lfoot 32.4774 -3.33079
ltoes 17.0848
1043
root 3.22196 16.0531 -22.3277 -172.418 -5.74625 177.605
lowerback -6.09679 -2.1268 -4.59138
upperback 1.05662 -2.51445 0.653482
thorax 4.7508 -1.38106 2.99791
lowerneck -35.5003 3.48044 2.83269
upperneck 37.8977 2.42713 -0.689569
head 21.3851 0.720745 -0.364892
rclavicle 4.09993e-015 -8.15017e-015
rhumerus -35.6402 -20.8504 -75.914
rradius 24.0506
rwrist 37.8365
rhand -2.38077 -5.9879
rfingers 7.12502
rthumb 23.3081 -34.5969
lclavicle 4.09993e-015 -8.15017e-015
lhumerus -25.2582 17.4138 84.2464
lradius 18.6854
lwrist -57.8682
lhand 1.62059 5.28026
lfingers 7.12502
lthumb 27.1417 33.3486
rfemur -13.0825 1.37505 25.0617
rtibia 24.0613
rfoot -10.9219 -8.7034
rtoes -7.56411
lfemur -10.1666 -6.19781 -16.1971
ltibia 54.8993
lfoot 32.4839 -3.34816
ltoes 17.0406
1044
root 3.22657 16.0525 -22.3215 -172.421 -5.82988 177.591
lowerback -6.07068 -2.10076 -4.58185
upperback 1.05118 -2.48224 0.664947
thorax 4.72754 -1.36442 3.00901
lowerneck -35.4735 3.59005 2.92824
upperneck 37.9356 2.59942 -0.820655
head 21.4143 0.77519 -0.403144
rclavicle -2.82274e-014 4.37326e-015
rhumerus -35.6381 -20.9744 -75.77
rradius 23.9432
rwrist 38.017
rhand -2.36352 -5.97956
rfingers 7.12502
rthumb 23.3247 -34.5865
lclavicle -2.82274e-014 4.37326e-015
lhumerus -25.193 17.4516 84.2538
lradius 18.683
lwrist -57.995
lhand 1.67646 5.24046
lfingers 7.12502
lthumb 27.1951 33.3005
rfemur -13.1035 1.25503 25.0653
rtibia 24.0779
rfoot -10.9363 -8.67828
rtoes -7.60153
lfemur -10.2826 -6.18193 -16.173
ltibia 55.0161
lfoot 32.4923 -3.37843
ltoes 16.9998
1045
root 3.23118 16.0516 -22.3148 -172.429 -5.9136 177.567
lowerback -6.03292 -2.0686 -4.5813
upperback 1.04547 -2.4416 0.672214
thorax 4.69685 -1.34365 3.02202
lowerneck -35.4387 3.71337 3.03768
upperneck 37.9781 2.78702 -0.958386
head 21.4466 0.83591 -0.443269
rclavicle -1.47598e-014 -1.78906e-015
rhumerus -35.6475 -21.1211 -75.6151
rradius 23.8424
rwrist 38.2115
rhand -2.34558 -5.95715
rfingers 7.12502
rthumb 23.3419 -34.5619
lclavicle -1.47598e-014 -1.78906e-015
lhumerus -25.1313 17.4283 84.2814
lradius 18.7047
lwrist -58.0522
lhand 1.72133 5.20146
lfingers 7.12502
lthumb 27.238 33.2547
rfemur -13.1199 1.13533 25.0608
rtibia 24.0982
rfoot -10.9524 -8.66891
rtoes -7.67329
lfemur -10.3951 -6.16074 -16.1615
ltibia 55.1309
lfoot 32.5136 -3.43012
ltoes 16.9812
1046
root 3.23546 16.0506 -22.3077 -172.439 -5.99964 177.539
lowerback -5.98624 -2.03299 -4.57906
upperback 1.03694 -2.39684 0.675977
thorax 4.65757 -1.32051 3.03115
lowerneck -35.39 3.85835 3.18086
upperneck 38.014 2.99775 -1.11538
head 21.4741 0.907483 -0.492843
rclavicle 6.38596e-015 -5.96354e-016
rhumerus -35.6664 -21.2596 -75.4659
rradius 23.7441
rwrist 38.3898
rhand -2.33479 -5.93818
rfingers 7.12502
rthumb 23.3523 -34.5416
lclavicle 6.38596e-015 -5.96354e-016
lhumerus -25.071 17.3243 84.3329
lradius 18.7445
lwrist -57.9868
lhand 1.74814 5.17297
lfingers 7.12502
lthumb 27.2637 33.2222
rfemur -13.1314 1.00234 25.0527
rtibia 24.118
rfoot -10.9652 -8.66037
rtoes -7.74552
lfemur -10.5055 -6.13745 -16.1578
ltibia 55.2432
lfoot 32.5625 -3.48788
ltoes 16.997
